<?xml version="1.0" standalone="no"?>
<!DOCTYPE svg PUBLIC "-//W3C//DTD SVG 20010904//EN"
 "http://www.w3.org/TR/2001/REC-SVG-20010904/DTD/svg10.dtd">
<svg version="1.0" xmlns="http://www.w3.org/2000/svg"
 width="300.000000pt" height="300.000000pt" viewBox="0 0 300.000000 300.000000"
 preserveAspectRatio="xMidYMid meet">
<metadata>
Created by potrace 1.10, written by Peter Selinger 2001-2011
</metadata>
<g transform="translate(0.000000,300.000000) scale(0.100000,-0.100000)"
fill="#000000" stroke="none">
<path d="M1956 2198 c-11 -6 -89 -14 -175 -18 -174 -7 -199 -15 -250 -77 -37
-45 -55 -103 -46 -149 3 -18 21 -57 40 -86 l35 -53 -40 44 c-66 72 -75 161
-24 236 l23 35 -21 0 c-79 0 -194 -114 -318 -314 -95 -155 -189 -264 -253
-295 -54 -26 -77 -26 -111 0 -40 31 -36 83 10 142 20 26 41 47 45 47 5 0 22
19 39 42 35 47 41 107 13 129 -9 8 -24 27 -34 43 -15 25 -19 27 -25 13 -3 -10
-4 -30 -2 -46 3 -21 1 -28 -9 -24 -9 4 -13 -4 -13 -24 0 -32 26 -76 41 -68 5
4 9 1 9 -5 0 -6 -25 -34 -56 -63 -79 -73 -101 -125 -83 -193 16 -57 110 -99
155 -69 19 12 18 6 -12 -63 -19 -42 -34 -82 -34 -87 0 -6 -13 -16 -30 -22 -16
-6 -34 -22 -39 -35 -9 -21 -91 -230 -106 -270 -7 -17 4 -18 136 -17 121 1 136
3 94 11 -27 5 -60 11 -72 14 -12 2 -24 12 -28 23 -3 10 -15 23 -28 29 -22 11
-22 11 3 7 20 -4 30 2 50 33 25 35 25 38 8 55 -10 9 -18 23 -18 29 0 7 7 3 15
-9 23 -33 66 -38 124 -12 46 20 52 25 57 61 4 21 20 55 36 76 79 98 91 123 93
186 1 34 6 69 11 79 8 13 9 1 7 -45 -3 -46 -1 -59 6 -48 6 8 11 11 11 5 0 -15
-53 -104 -99 -165 -47 -63 -56 -95 -42 -165 7 -40 5 -80 -14 -195 -13 -79 -23
-146 -21 -147 2 -2 203 -2 447 -1 l444 3 -233 34 -234 34 -37 76 c-60 118 -84
195 -77 235 7 35 76 138 112 166 18 15 18 14 0 -15 -10 -16 -26 -39 -36 -50
-47 -55 -46 -58 48 -87 127 -40 140 -38 182 23 41 60 59 75 29 24 l-22 -36 50
-52 c63 -64 75 -87 82 -157 l6 -55 244 -3 c135 -1 242 0 240 3 -3 3 -70 14
-149 24 -90 12 -146 25 -151 33 -4 7 -28 40 -53 73 -56 74 -88 154 -85 213 3
42 2 44 -38 62 -29 13 -49 32 -67 63 -15 25 -47 64 -73 87 -59 55 -93 106 -93
139 1 22 3 20 15 -14 8 -25 35 -59 68 -90 30 -27 68 -70 84 -95 49 -72 67 -84
126 -84 29 1 67 9 85 18 31 16 32 18 32 84 0 54 6 80 30 130 17 35 30 70 30
78 0 8 5 14 10 14 6 0 10 -6 10 -14 0 -35 130 -38 190 -5 58 33 70 67 70 201
0 62 4 128 9 146 12 40 3 41 -33 3 -22 -23 -30 -45 -41 -112 -18 -116 -44
-135 -150 -108 -34 9 -49 19 -64 45 -11 19 -34 42 -52 53 -24 15 -27 20 -14
23 32 6 -66 101 -149 144 -63 33 -76 36 -90 25 -21 -18 -20 -69 2 -96 9 -11 5
-8 -10 7 -33 34 -35 66 -8 101 21 26 72 47 174 68 32 7 72 24 88 37 41 35 37
55 -6 30z m-162 -553 c20 -26 23 -35 12 -35 -21 0 -46 28 -46 51 0 26 4 24 34
-16z"/>
</g>
</svg>
